HIERARCHY
ROOT Hips
{
	OFFSET 0.00000 0.00000 0.00000
	CHANNELS 6 Xposition Yposition Zposition Zrotation Yrotation Xrotation 
	JOINT LHipJoint
	{
		OFFSET 0 0 0
		CHANNELS 3 Zrotation Yrotation Xrotation
		JOINT LeftHip
		{
			OFFSET 1.57093 -1.69714 0.87455
			CHANNELS 3 Zrotation Yrotation Xrotation
			JOINT LeftKnee
			{
				OFFSET 2.48056 -6.81529 0.00000
				CHANNELS 3 Zrotation Yrotation Xrotation
				JOINT LeftAnkle
				{
					OFFSET 2.62558 -7.21374 0.00000
					CHANNELS 3 Zrotation Yrotation Xrotation
					JOINT LeftToe
					{
						OFFSET 0.17911 -0.49210 2.16707
						CHANNELS 3 Zrotation Yrotation Xrotation
						End Site
						{
							OFFSET 0.00000 -0.00000 1.11848
						}
					}
				}
			}
		}
	}
	JOINT RHipJoint
	{
		OFFSET 0 0 0
		CHANNELS 3 Zrotation Yrotation Xrotation
		JOINT RightHip
		{
			OFFSET -1.69739 -1.69715 0.87455
			CHANNELS 3 Zrotation Yrotation Xrotation
			JOINT RightKnee
			{
				OFFSET -2.33658 -6.41972 0.00000
				CHANNELS 3 Zrotation Yrotation Xrotation
				JOINT RightAnkle
				{
					OFFSET -2.60856 -7.16696 0.00000
					CHANNELS 3 Zrotation Yrotation Xrotation
					JOINT RightToe
					{
						OFFSET -0.20854 -0.57296 2.11053
						CHANNELS 3 Zrotation Yrotation Xrotation
						End Site
						{
							OFFSET -0.00000 -0.00000 1.09848
						}
					}
				}
			}
		}
	}
	JOINT lowerback
	{
		OFFSET 0 0 0
		CHANNELS 3 Zrotation Yrotation Xrotation
		JOINT Chest
		{
			OFFSET 0.02563 2.15732 -0.03270
			CHANNELS 3 Zrotation Yrotation Xrotation
			JOINT Chest2
			{
				OFFSET 0.00281 2.14662 0.09285
				CHANNELS 3 Zrotation Yrotation Xrotation
				JOINT lowerneck
				{
					OFFSET 0 0 0
					CHANNELS 3 Zrotation Yrotation Xrotation
					JOINT Neck
					{
						OFFSET -0.04440 1.68397 0.17601
						CHANNELS 3 Zrotation Yrotation Xrotation
						JOINT Head
						{
							OFFSET 0.06040 1.66995 -0.35615
							CHANNELS 3 Zrotation Yrotation Xrotation
							End Site
							{
								OFFSET 0.02405 1.72189 -0.14044
							}
						}
					}
				}
				JOINT LeftCollar
				{
					OFFSET 0 0 0
					CHANNELS 3 Zrotation Yrotation Xrotation
					JOINT LeftShoulder
					{
						OFFSET 2.98955 1.90907 -0.21660
CHANNELS 3 Zrotation Xrotation Yrotation
						JOINT LeftElbow
						{
OFFSET 0 -4.913770 0.000000
CHANNELS 3 Zrotation Xrotation Yrotation
							JOINT LeftWrist
							{
OFFSET 0 -3.002910 -0.000000
CHANNELS 3 Zrotation Xrotation Yrotation
								JOINT lhand
								{
									OFFSET 0 0 0
CHANNELS 3 Zrotation Xrotation Yrotation
									JOINT LFingers
									{
OFFSET 0 -0.450920 -0.000000
CHANNELS 3 Zrotation Xrotation Yrotation
										End Site
										{
OFFSET 0 -0.363550 -0.000000
										}
									}
								}
								JOINT LThumb
								{
OFFSET 0 0.000000 0.000000
CHANNELS 3 Zrotation Xrotation Yrotation
									End Site
									{
OFFSET 0 -0.369100 0.369100
									}
								}
							}
						}
					}
				}
				JOINT RightCollar
				{
					OFFSET 0 0 0
					CHANNELS 3 Zrotation Yrotation Xrotation
					JOINT RightShoulder
					{
						OFFSET -2.80452 1.90886 -0.21152
CHANNELS 3 Zrotation Xrotation Yrotation
						JOINT RightElbow
						{
OFFSET 0 -4.867250 0.000000
CHANNELS 3 Zrotation Xrotation Yrotation
							JOINT RightWrist
							{
OFFSET 0 -3.171440 -0.000000
CHANNELS 3 Zrotation Xrotation Yrotation
								JOINT rhand
								{
									OFFSET 0 0 0
CHANNELS 3 Zrotation Xrotation Yrotation
									JOINT RFingers
									{
OFFSET 0 -0.419370 -0.000000
CHANNELS 3 Zrotation Xrotation Yrotation
										End Site
										{
OFFSET 0 -0.338100 -0.000000
										}
									}
								}
								JOINT RThumb
								{
OFFSET 0 0.000000 0.000000
CHANNELS 3 Zrotation Xrotation Yrotation
									End Site
									{
OFFSET 0 -0.343270 0.343270
									}
								}
							}
						}
					}
				}
			}
		}
	}
}
MOTION
Frames: 6
Frame Time: 0.008333333333333333
1.805300 15.057400 7.977900 -6.713300 -10.936000 107.385000 0.000000 0.000000 0.000000 -13.975800 -11.149400 -63.273400 4.729800 13.072900 39.641900 -1.328600 22.544500 -20.027900 0.333600 3.711800 10.267100 0.000000 0.000000 0.000000 -28.580000 22.094100 -83.947200 -1.131500 -6.756000 18.994500 0.381000 -12.205700 -10.445100 -0.001400 0.238300 -0.654700 23.053500 9.005100 -0.987200 -8.680900 12.661500 -6.376800 -21.574400 6.107400 0.570700 7.695800 -3.626300 -6.116000 3.093200 -8.197600 43.749400 -1.147500 -1.571100 16.920200 -0.000000 0.000000 0.000000 185.339000 -42.568100 59.295700 19.455900 -29.981200 5.256700 11.525600 -1.812600 0.242600 0.000000 0.000000 0.000000 -7.125000 0.000000 0.000000 -11.763500 29.628300 -4.495700 -0.000000 0.000000 0.000000 -155.270800 -40.673500 -56.233100 -23.764400 -34.914100 -7.571300 -26.570100 -4.192200 18.190900 0.000000 0.000000 0.000000 7.125000 0.000000 -0.000000 1.511700 50.147500 -0.191800
1.807163 15.053801 7.992038 -6.788321 -11.042065 107.374927 0.000000 0.000000 0.000000 -13.453734 -11.401092 -63.353388 4.695150 13.032053 39.488407 -1.345616 22.982734 -20.938159 0.429756 4.206205 11.657648 0.000000 0.000000 0.000000 -28.372708 22.000258 -83.850110 -1.122666 -6.730426 18.919224 0.354232 -11.835455 -10.232037 -0.003390 0.375622 -1.032023 23.023651 9.027827 -0.939538 -8.709825 12.701006 -6.353420 -21.591267 6.135025 0.593097 7.809000 -3.604559 -6.255129 3.149238 -8.249278 43.847489 -1.155026 -1.559380 17.015019 0.000000 0.000000 0.000000 185.734701 -42.740481 60.309715 19.421535 -29.939024 5.239522 11.593664 -2.107473 0.106985 0.000000 0.000000 0.000000 -7.125000 0.000000 0.000000 -11.726728 29.764751 -4.442094 0.000000 0.000000 0.000000 -154.978717 -40.677300 -55.966457 -23.834410 -34.988636 -7.611408 -26.557615 -4.350891 18.317501 0.000000 0.000000 0.000000 7.125000 0.000000 0.000000 1.549449 50.283351 -0.201807
1.808762 15.051012 8.012911 -6.799666 -11.108830 107.312247 0.000000 0.000000 0.000000 -12.763745 -11.806484 -63.360278 4.655287 12.984748 39.311401 -1.252188 23.081728 -22.310263 0.585111 4.895805 13.611967 0.000000 0.000000 0.000000 -28.149942 21.953912 -83.684562 -1.116312 -6.712117 18.865140 0.339600 -11.619106 -10.091801 -0.006143 0.504037 -1.385114 23.116886 8.972009 -0.877084 -8.721496 12.636314 -6.301294 -21.683207 6.105727 0.601603 7.876774 -3.485810 -6.267164 3.203830 -8.125852 43.821386 -1.127309 -1.499170 17.009904 0.000000 0.000000 0.000000 185.772666 -42.844972 60.760104 19.438288 -29.959665 5.247944 11.648065 -2.386907 0.023411 0.000000 0.000000 0.000000 -7.125000 0.000000 0.000000 -11.694519 29.849143 -4.405391 0.000000 0.000000 0.000000 -154.944954 -40.692790 -55.911414 -23.888765 -35.046389 -7.642529 -26.507104 -4.621435 18.489641 0.000000 0.000000 0.000000 7.125000 0.000000 0.000000 1.634874 50.462005 -0.220163
1.810670 15.047486 8.036399 -6.767373 -11.219342 107.220641 0.000000 0.000000 0.000000 -12.056164 -12.337770 -63.304924 4.608417 12.928746 39.102249 -1.169612 23.255917 -23.603636 0.782968 5.646618 15.763229 0.000000 0.000000 0.000000 -28.020119 21.892404 -83.486967 -1.115760 -6.710352 18.860149 0.328291 -11.464482 -10.020355 -0.011374 0.687943 -1.890563 23.168012 8.919887 -0.821762 -8.744408 12.574205 -6.246939 -21.764297 6.079587 0.613026 7.970504 -3.374007 -6.237231 3.268264 -8.012201 43.767643 -1.099545 -1.439792 16.977982 0.000000 0.000000 0.000000 185.886754 -42.951925 61.321973 19.493698 -30.027519 5.275599 11.714950 -2.863792 -0.057929 0.000000 0.000000 0.000000 -7.125000 0.000000 0.000000 -11.652220 29.931464 -4.365448 0.000000 0.000000 0.000000 -154.867081 -40.745769 -55.864213 -23.950178 -35.111538 -7.677898 -26.336343 -4.596406 18.796009 0.000000 0.000000 0.000000 7.125000 0.000000 0.000000 1.869928 50.765697 -0.265853
1.813169 15.043135 8.062896 -6.700250 -11.367704 107.155509 0.000000 0.000000 0.000000 -11.295583 -13.022488 -63.259184 4.558782 12.869015 38.880208 -1.086571 23.511352 -24.965228 1.020411 6.423487 18.019226 0.000000 0.000000 0.000000 -27.990175 21.796025 -83.313297 -1.121206 -6.726139 18.906664 0.320782 -11.370928 -10.001371 -0.020411 0.920362 -2.529594 23.204760 8.864888 -0.817029 -8.786867 12.497584 -6.202078 -21.856568 6.047750 0.636621 8.074474 -3.270040 -6.243601 3.262893 -7.893170 43.759494 -1.104960 -1.380447 16.975024 0.000000 0.000000 0.000000 186.011688 -43.063518 62.000236 19.621745 -30.183890 5.339877 11.800575 -3.740184 -0.139118 0.000000 0.000000 0.000000 -7.125000 0.000000 0.000000 -11.595410 30.014006 -4.320031 0.000000 0.000000 0.000000 -154.819361 -40.840725 -55.873434 -24.008651 -35.173456 -7.711529 -26.197597 -4.418261 19.072055 0.000000 0.000000 0.000000 7.125000 0.000000 0.000000 2.069110 51.040789 -0.308057
1.816276 15.038163 8.092361 -6.612295 -11.530853 107.114633 0.000000 0.000000 0.000000 -10.455307 -13.845838 -63.223416 4.508927 12.808438 38.655564 -0.954082 23.768583 -26.662270 1.308512 7.242684 20.437827 0.000000 0.000000 0.000000 -27.967651 21.663519 -83.162088 -1.130969 -6.754337 18.989616 0.314538 -11.288298 -9.972606 -0.032159 1.156484 -3.179587 23.242646 8.807413 -0.851718 -8.842606 12.410051 -6.170419 -21.962821 6.010220 0.665334 8.177058 -3.178812 -6.313685 3.191291 -7.782041 43.829896 -1.142547 -1.324990 17.027769 0.000000 0.000000 0.000000 186.128470 -43.232424 62.790778 19.753853 -30.344621 5.406439 11.890175 -4.655710 -0.211806 0.000000 0.000000 0.000000 -7.125000 0.000000 0.000000 -11.534485 30.088221 -4.275550 0.000000 0.000000 0.000000 -154.813211 -40.951939 -55.895487 -24.056274 -35.223670 -7.738968 -26.202790 -4.224175 19.299468 0.000000 0.000000 0.000000 7.125000 0.000000 0.000000 2.114547 51.288045 -0.327641
